<svg width="1024" height="1024" viewBox="0 0 1024 1024" fill="none" xmlns="http://www.w3.org/2000/svg">
<path d="M1024 0H0V1024H1024V0Z" fill="url(#paint0_linear_92_30)"/>
<path d="M1065 -49H-41V1073H1065V-49Z" fill="black" fill-opacity="0.82"/>
<g opacity="0.6" filter="url(#filter0_f_92_30)">
<path d="M486.549 217.437L504.549 200.862C508.759 196.984 515.241 196.984 519.451 200.862L537.451 217.437C539.713 219.52 541 222.454 541 225.529V434.967C541 441.042 536.075 445.967 530 445.967H494C487.925 445.967 483 441.042 483 434.967V225.529C483 222.454 484.287 219.52 486.549 217.437Z" fill="white"/>
<path d="M495 495.25C495 486.137 502.387 478.75 511.5 478.75C520.613 478.75 528 486.137 528 495.25V510.917V583.288C528 588.796 521.199 591.393 517.527 587.287L515.973 585.549C513.588 582.881 509.412 582.881 507.027 585.549L505.473 587.287C501.801 591.393 495 588.796 495 583.288V510.917V495.25Z" fill="url(#paint1_linear_92_30)"/>
<path d="M554.5 471H467.5C460.044 471 454 477.044 454 484.5C454 491.956 460.044 498 467.5 498H554.5C561.956 498 568 491.956 568 484.5C568 477.044 561.956 471 554.5 471Z" fill="white"/>
<path d="M523.111 586.889C529.8 593.578 529.8 604.422 523.111 611.111C516.422 617.8 505.578 617.8 498.889 611.111C492.2 604.422 492.2 593.578 498.889 586.889C505.578 580.2 516.422 580.2 523.111 586.889Z" fill="black" stroke="white" stroke-width="11"/>
<path d="M783.382 221C837.156 274.742 873.776 343.213 888.612 417.756C903.448 492.298 895.833 569.563 866.732 639.78C837.63 709.997 788.347 770.013 725.117 812.238C661.886 854.463 587.547 877 511.5 877C435.453 877 361.114 854.463 297.883 812.238C234.653 770.013 185.37 709.997 156.268 639.78C127.167 569.563 119.552 492.298 134.388 417.756C149.224 343.213 185.844 274.742 239.618 221L267.808 249.174C282.268 263.625 282.063 286.944 269.444 303.027C239.763 340.857 219.262 385.263 209.811 432.749C197.942 492.383 204.033 554.195 227.315 610.369C250.596 666.543 290.022 714.555 340.607 748.335C391.191 782.115 450.662 800.145 511.5 800.145C572.337 800.145 631.809 782.115 682.393 748.335C732.978 714.555 772.404 666.543 795.685 610.369C818.967 554.195 825.058 492.383 813.189 432.749C803.738 385.263 783.237 340.857 753.556 303.027C740.937 286.944 740.732 263.625 755.192 249.174L783.382 221Z" fill="url(#paint2_linear_92_30)"/>
<path d="M753.693 249.974C801.429 297.71 833.938 358.53 847.108 424.742C860.279 490.955 853.519 559.585 827.684 621.956C801.85 684.326 758.1 737.635 701.968 775.142C645.836 812.648 579.843 832.667 512.333 832.667C444.824 832.667 378.831 812.648 322.699 775.142C266.567 737.635 222.817 684.326 196.982 621.956C171.148 559.585 164.388 490.955 177.559 424.742C190.729 358.53 223.238 297.71 270.974 249.974L293.083 272.083C307.533 286.532 307.297 309.83 294.932 326.099C269.941 358.98 252.633 397.239 244.514 438.061C233.977 491.03 239.385 545.935 260.053 595.831C280.72 645.728 315.72 688.375 360.626 718.38C405.531 748.385 458.326 764.4 512.333 764.4C566.341 764.4 619.135 748.385 664.041 718.38C708.947 688.375 743.946 645.728 764.614 595.831C785.282 545.935 790.69 491.03 780.153 438.061C772.033 397.239 754.725 358.98 729.735 326.099C717.37 309.83 717.134 286.532 731.584 272.083L753.693 249.974Z" fill="url(#paint3_linear_92_30)"/>
<path d="M661.171 342.495C667.836 335.83 678.697 335.791 684.844 342.936C710.349 372.586 727.848 408.392 735.516 446.939C744.296 491.081 739.79 536.835 722.567 578.415C705.344 619.995 676.177 655.535 638.756 680.539C601.335 705.543 557.339 718.889 512.333 718.889C467.327 718.889 423.331 705.543 385.91 680.539C348.488 655.535 319.322 619.995 302.099 578.415C284.876 536.835 280.369 491.081 289.15 446.939C296.817 408.392 314.317 372.586 339.822 342.936C345.969 335.791 356.83 335.83 363.495 342.495C370.16 349.16 370.094 359.922 364.042 367.148C343.261 391.963 328.977 421.675 322.627 453.599C315.164 491.119 318.994 530.01 333.634 565.353C348.274 600.696 373.065 630.905 404.873 652.158C436.681 673.412 474.078 684.756 512.333 684.756C550.588 684.756 587.984 673.412 619.793 652.158C651.601 630.905 676.392 600.696 691.032 565.353C705.671 530.01 709.502 491.119 702.039 453.599C695.689 421.675 681.405 391.963 660.624 367.148C654.572 359.922 654.506 349.16 661.171 342.495Z" fill="url(#paint4_linear_92_30)"/>
</g>
<path d="M486.549 217.437L504.549 200.862C508.759 196.984 515.241 196.984 519.451 200.862L537.451 217.437C539.713 219.52 541 222.454 541 225.529V434.967C541 441.042 536.075 445.967 530 445.967H494C487.925 445.967 483 441.042 483 434.967V225.529C483 222.454 484.287 219.52 486.549 217.437Z" fill="white"/>
<path d="M495 495.25C495 486.137 502.387 478.75 511.5 478.75C520.613 478.75 528 486.137 528 495.25V510.917V583.288C528 588.796 521.199 591.393 517.527 587.287L515.973 585.549C513.588 582.881 509.412 582.881 507.027 585.549L505.473 587.287C501.801 591.393 495 588.796 495 583.288V510.917V495.25Z" fill="url(#paint5_linear_92_30)"/>
<path d="M554.5 471H467.5C460.044 471 454 477.044 454 484.5C454 491.956 460.044 498 467.5 498H554.5C561.956 498 568 491.956 568 484.5C568 477.044 561.956 471 554.5 471Z" fill="white"/>
<path d="M523.111 586.889C529.8 593.578 529.8 604.422 523.111 611.111C516.422 617.8 505.578 617.8 498.889 611.111C492.2 604.422 492.2 593.578 498.889 586.889C505.578 580.2 516.422 580.2 523.111 586.889Z" fill="black" stroke="white" stroke-width="11"/>
<path d="M783.382 221C837.156 274.742 873.776 343.213 888.612 417.756C903.448 492.298 895.833 569.563 866.732 639.78C837.63 709.997 788.347 770.013 725.117 812.238C661.886 854.463 587.547 877 511.5 877C435.453 877 361.114 854.463 297.883 812.238C234.653 770.013 185.37 709.997 156.268 639.78C127.167 569.563 119.552 492.298 134.388 417.756C149.224 343.213 185.844 274.742 239.618 221L267.808 249.174C282.268 263.625 282.063 286.944 269.444 303.027C239.763 340.857 219.262 385.263 209.811 432.749C197.942 492.383 204.033 554.195 227.315 610.369C250.596 666.543 290.022 714.555 340.607 748.335C391.191 782.115 450.662 800.145 511.5 800.145C572.337 800.145 631.809 782.115 682.393 748.335C732.978 714.555 772.404 666.543 795.685 610.369C818.967 554.195 825.058 492.383 813.189 432.749C803.738 385.263 783.237 340.857 753.556 303.027C740.937 286.944 740.732 263.625 755.192 249.174L783.382 221Z" fill="url(#paint6_linear_92_30)"/>
<path d="M753.693 249.974C801.429 297.71 833.938 358.53 847.108 424.742C860.279 490.955 853.519 559.585 827.684 621.956C801.85 684.326 758.1 737.635 701.968 775.142C645.836 812.648 579.843 832.667 512.333 832.667C444.824 832.667 378.831 812.648 322.699 775.142C266.567 737.635 222.817 684.326 196.982 621.956C171.148 559.585 164.388 490.955 177.559 424.742C190.729 358.53 223.238 297.71 270.974 249.974L293.083 272.083C307.533 286.532 307.297 309.83 294.932 326.099C269.941 358.98 252.633 397.239 244.514 438.061C233.977 491.03 239.385 545.935 260.053 595.831C280.72 645.728 315.72 688.375 360.626 718.38C405.531 748.385 458.326 764.4 512.333 764.4C566.341 764.4 619.135 748.385 664.041 718.38C708.947 688.375 743.946 645.728 764.614 595.831C785.282 545.935 790.69 491.03 780.153 438.061C772.033 397.239 754.725 358.98 729.735 326.099C717.37 309.83 717.134 286.532 731.584 272.083L753.693 249.974Z" fill="url(#paint7_linear_92_30)"/>
<path d="M661.171 342.495C667.836 335.83 678.697 335.791 684.844 342.936C710.349 372.586 727.848 408.392 735.516 446.939C744.296 491.081 739.79 536.835 722.567 578.415C705.344 619.995 676.177 655.535 638.756 680.539C601.335 705.543 557.339 718.889 512.333 718.889C467.327 718.889 423.331 705.543 385.91 680.539C348.488 655.535 319.322 619.995 302.099 578.415C284.876 536.835 280.369 491.081 289.15 446.939C296.817 408.392 314.317 372.586 339.822 342.936C345.969 335.791 356.83 335.83 363.495 342.495C370.16 349.16 370.094 359.922 364.042 367.148C343.261 391.963 328.977 421.675 322.627 453.599C315.164 491.119 318.994 530.01 333.634 565.353C348.274 600.696 373.065 630.905 404.873 652.158C436.681 673.412 474.078 684.756 512.333 684.756C550.588 684.756 587.984 673.412 619.793 652.158C651.601 630.905 676.392 600.696 691.032 565.353C705.671 530.01 709.502 491.119 702.039 453.599C695.689 421.675 681.405 391.963 660.624 367.148C654.572 359.922 654.506 349.16 661.171 342.495Z" fill="url(#paint8_linear_92_30)"/>
<defs>
<filter id="filter0_f_92_30" x="96.9999" y="167.953" width="829" height="739.047" filterUnits="userSpaceOnUse" color-interpolation-filters="sRGB">
<feFlood flood-opacity="0" result="BackgroundImageFix"/>
<feBlend mode="normal" in="SourceGraphic" in2="BackgroundImageFix" result="shape"/>
<feGaussianBlur stdDeviation="15" result="effect1_foregroundBlur_92_30"/>
</filter>
<linearGradient id="paint0_linear_92_30" x1="512" y1="0" x2="512" y2="1024" gradientUnits="userSpaceOnUse">
<stop stop-color="#FF6D94"/>
<stop offset="1" stop-color="#FF6969"/>
</linearGradient>
<linearGradient id="paint1_linear_92_30" x1="511.5" y1="478.75" x2="511.5" y2="599" gradientUnits="userSpaceOnUse">
<stop stop-color="#FF6D85"/>
<stop offset="1" stop-color="#FF6969"/>
</linearGradient>
<linearGradient id="paint2_linear_92_30" x1="511.5" y1="221" x2="511.5" y2="877" gradientUnits="userSpaceOnUse">
<stop stop-color="#FF9966" stop-opacity="0"/>
<stop offset="1" stop-color="#FF6985" stop-opacity="0.3"/>
</linearGradient>
<linearGradient id="paint3_linear_92_30" x1="512.333" y1="249.974" x2="512.333" y2="832.667" gradientUnits="userSpaceOnUse">
<stop stop-color="#FF6D85"/>
<stop offset="1" stop-color="#FF6969"/>
</linearGradient>
<linearGradient id="paint4_linear_92_30" x1="512.333" y1="263.778" x2="512.333" y2="718.889" gradientUnits="userSpaceOnUse">
<stop stop-color="#FF9966" stop-opacity="0"/>
<stop offset="1" stop-color="#FF6985" stop-opacity="0.3"/>
</linearGradient>
<linearGradient id="paint5_linear_92_30" x1="511.5" y1="478.75" x2="511.5" y2="599" gradientUnits="userSpaceOnUse">
<stop stop-color="#FF6D85"/>
<stop offset="1" stop-color="#FF6969"/>
</linearGradient>
<linearGradient id="paint6_linear_92_30" x1="511.5" y1="221" x2="511.5" y2="877" gradientUnits="userSpaceOnUse">
<stop stop-color="#FF9966" stop-opacity="0"/>
<stop offset="1" stop-color="#FF6985" stop-opacity="0.3"/>
</linearGradient>
<linearGradient id="paint7_linear_92_30" x1="512.333" y1="249.974" x2="512.333" y2="832.667" gradientUnits="userSpaceOnUse">
<stop stop-color="#FF6D85"/>
<stop offset="1" stop-color="#FF6976"/>
</linearGradient>
<linearGradient id="paint8_linear_92_30" x1="512.333" y1="263.778" x2="512.333" y2="718.889" gradientUnits="userSpaceOnUse">
<stop stop-color="#FF9966" stop-opacity="0"/>
<stop offset="1" stop-color="#FF6985" stop-opacity="0.3"/>
</linearGradient>
</defs>
</svg>
